# Wavefront OBJ exported by MilkShape 3D

mtllib designator6.mtl

v 0.020670 2.714441 0.000000
v 0.000000 2.714441 0.000000
v 0.017900 2.714441 0.010335
v 0.020670 -0.000175 0.000000
v 0.020670 2.714441 0.000000
v 0.017900 -0.000175 0.010335
v 0.017900 2.714441 0.010335
v 0.010335 2.714441 0.017900
v 0.010335 2.714441 0.017900
v 0.010335 -0.000175 0.017900
v 0.000000 2.714441 0.020670
v 0.000000 -0.000175 0.020670
v 0.000000 2.714441 0.020670
v -0.010335 2.714441 0.017900
v -0.010335 2.714441 0.017900
v -0.010335 -0.000175 0.017900
v -0.017900 2.714441 0.010335
v -0.017900 -0.000175 0.010335
v -0.017900 2.714441 0.010335
v -0.020670 2.714441 0.000000
v -0.020670 2.714441 0.000000
v -0.020670 -0.000175 0.000000
v -0.017900 2.714441 -0.010335
v -0.017900 -0.000175 -0.010335
v -0.017900 2.714441 -0.010335
v -0.010335 2.714441 -0.017900
v -0.010335 2.714441 -0.017900
v -0.010335 -0.000175 -0.017900
v 0.000000 2.714441 -0.020670
v 0.000000 -0.000175 -0.020670
v 0.000000 2.714441 -0.020670
v 0.010335 2.714441 -0.017900
v 0.010335 2.714441 -0.017900
v 0.010335 -0.000175 -0.017900
v 0.017900 2.714441 -0.010335
v 0.017900 -0.000175 -0.010335
v 0.017900 2.714441 -0.010335
v 0.020670 2.714441 0.000000
v 0.020670 -0.000175 0.000000
v 0.000000 -0.000175 0.020670
v -0.010335 -0.000175 0.017900
v 0.010335 -0.000175 -0.017900
v 0.010335 -0.000175 0.017900
v 0.017900 -0.000175 0.010335
v -0.017900 -0.000175 0.010335
v 0.000000 -0.000175 -0.020670
v -0.010335 -0.000175 -0.017900
v -0.017900 -0.000175 -0.010335
v -0.020670 -0.000175 0.000000
v 0.017900 -0.000175 -0.010335
v 0.020670 -0.000175 0.000000
v -0.191976 2.409276 0.005200
v -0.191979 2.409286 0.000000
v -0.052389 0.545709 0.000000
v -0.052388 0.545705 0.005200
v 0.000000 2.709502 0.005217
v 0.000000 2.709496 0.000000
v -0.210983 2.620652 0.000000
v -0.210967 2.620644 0.005200
v -0.623432 2.157630 0.005200
v -0.623420 2.157604 0.000000
v -0.611165 2.108672 0.000000
v -0.611162 2.108669 0.005200
v -0.623420 2.157604 0.000000
v -0.623432 2.157630 0.005200
v 0.052388 0.545705 0.005200
v 0.052389 0.545709 0.000000
v 0.191979 2.409286 0.000000
v 0.191976 2.409276 0.005200
v 0.210967 2.620644 0.005200
v 0.210983 2.620652 0.000000
v 0.611165 2.108672 0.000000
v 0.611162 2.108669 0.005200
v 0.623420 2.157604 0.000000
v 0.623432 2.157630 0.005200
v 0.623432 2.157630 0.005200
v 0.623420 2.157604 0.000000
v 0.052389 0.545709 0.000000
v 0.000000 0.545709 0.000000
v 0.000000 2.709496 0.000000
v -0.052389 0.545709 0.000000
v 0.191979 2.409286 0.000000
v -0.191979 2.409286 0.000000
v -0.210983 2.620652 0.000000
v 0.210983 2.620652 0.000000
v 0.000000 0.545709 0.000000
v 0.000000 0.545705 0.005217
v 0.623420 2.157604 0.000000
v 0.611165 2.108672 0.000000
v -0.623420 2.157604 0.000000
v -0.611165 2.108672 0.000000
v 0.000000 2.709502 0.005217
v 0.191976 2.409276 0.005200
v 0.210967 2.620644 0.005200
v -0.191976 2.409276 0.005200
v -0.210967 2.620644 0.005200
v -0.052388 0.545705 0.005200
v 0.052388 0.545705 0.005200
v 0.000000 0.545705 0.005217
v 0.611162 2.108669 0.005200
v 0.623432 2.157630 0.005200
v -0.623432 2.157630 0.005200
v -0.611162 2.108669 0.005200
v 0.005200 2.409276 0.191976
v 0.000000 2.409286 0.191979
v 0.000000 0.545709 0.052389
v 0.005200 0.545705 0.052388
v 0.005217 2.709502 -0.000000
v 0.000000 2.709496 0.000000
v 0.000000 2.620652 0.210983
v 0.005200 2.620644 0.210967
v 0.005200 2.157630 0.623432
v 0.000000 2.157604 0.623420
v 0.000000 2.108672 0.611165
v 0.005200 2.108669 0.611162
v 0.000000 2.157604 0.623420
v 0.005200 2.157630 0.623432
v 0.005200 0.545705 -0.052388
v -0.000000 0.545709 -0.052389
v -0.000000 2.409286 -0.191979
v 0.005200 2.409276 -0.191976
v 0.005200 2.620644 -0.210967
v -0.000000 2.620652 -0.210983
v -0.000000 2.108672 -0.611165
v 0.005200 2.108669 -0.611162
v -0.000000 2.157604 -0.623420
v 0.005200 2.157630 -0.623432
v 0.005200 2.157630 -0.623432
v -0.000000 2.157604 -0.623420
v -0.000000 0.545709 -0.052389
v -0.000000 0.545709 -0.000000
v 0.000000 2.709496 0.000000
v 0.000000 0.545709 0.052389
v -0.000000 2.409286 -0.191979
v 0.000000 2.409286 0.191979
v 0.000000 2.620652 0.210983
v -0.000000 2.620652 -0.210983
v -0.000000 0.545709 -0.000000
v 0.005217 0.545705 -0.000000
v -0.000000 2.157604 -0.623420
v -0.000000 2.108672 -0.611165
v 0.000000 2.157604 0.623420
v 0.000000 2.108672 0.611165
v 0.005217 2.709502 -0.000000
v 0.005200 2.409276 -0.191976
v 0.005200 2.620644 -0.210967
v 0.005200 2.409276 0.191976
v 0.005200 2.620644 0.210967
v 0.005200 0.545705 0.052388
v 0.005200 0.545705 -0.052388
v 0.005217 0.545705 -0.000000
v 0.005200 2.108669 -0.611162
v 0.005200 2.157630 -0.623432
v 0.005200 2.157630 0.623432
v 0.005200 2.108669 0.611162
v -0.006256 2.986856 0.006256
v -0.006256 2.713257 0.006256
v 0.006256 2.986856 0.006256
v 0.006256 2.713257 0.006256
v 0.006256 2.986856 0.006256
v 0.006256 2.713257 0.006256
v 0.006256 2.986856 -0.006256
v 0.006256 2.713257 -0.006256
v 0.006256 2.986856 -0.006256
v 0.006256 2.713257 -0.006256
v -0.006256 2.986856 -0.006256
v -0.006256 2.713257 -0.006256
v -0.006256 2.986856 -0.006256
v -0.006256 2.713257 -0.006256
v -0.006256 2.986856 0.006256
v -0.006256 2.713257 0.006256
v -0.006256 2.986856 0.006256
v 0.006256 2.986856 0.006256
v -0.006256 2.713257 0.006256
v 0.006256 2.713257 0.006256
v 0.087829 2.856975 0.086680
v 0.002005 2.735601 0.000856
v -0.000856 2.982395 -0.002005
v -0.086680 2.861021 -0.087829
v -0.002005 2.982395 -0.000856
v -0.087829 2.861021 -0.086680
v 0.086680 2.856975 0.087829
v 0.000856 2.735601 0.002005
v 0.086680 2.856975 -0.087829
v 0.000856 2.735601 -0.002005
v -0.002005 2.982395 0.000856
v -0.087829 2.861021 0.086680
v -0.000856 2.982395 0.002005
v -0.086680 2.861021 0.087829
v 0.087829 2.856975 -0.086680
v 0.002005 2.735601 -0.000856
# 191 vertices

vt 0.422997 0.927627
vt 0.372631 0.927627
vt 0.416250 0.904461
vt 0.810738 0.015948
vt 0.810738 0.972425
vt 0.825408 0.015948
vt 0.825408 0.972425
vt 0.397814 0.887502
vt 0.840079 0.972425
vt 0.840079 0.015948
vt 0.372631 0.881295
vt 0.854749 0.015948
vt 0.854749 0.972425
vt 0.347449 0.887502
vt 0.869419 0.972425
vt 0.869419 0.015948
vt 0.329013 0.904461
vt 0.884090 0.015948
vt 0.884090 0.972425
vt 0.322266 0.927627
vt 0.898760 0.972425
vt 0.898760 0.015948
vt 0.329013 0.950792
vt 0.913430 0.015948
vt 0.913430 0.972425
vt 0.347449 0.967751
vt 0.928101 0.972425
vt 0.928101 0.015948
vt 0.372631 0.973958
vt 0.942771 0.015948
vt 0.942771 0.972425
vt 0.397814 0.967751
vt 0.957441 0.972425
vt 0.957441 0.015948
vt 0.416250 0.950792
vt 0.972112 0.015948
vt 0.972112 0.972425
vt 0.986782 0.972425
vt 0.986782 0.015948
vt 0.352309 0.097523
vt 0.352307 0.088040
vt 0.435948 0.088040
vt 0.435949 0.097523
vt 0.488502 0.088040
vt 0.488502 0.097540
vt 0.346967 0.097540
vt 0.346977 0.088056
vt 0.060957 0.097523
vt 0.060965 0.088040
vt 0.069369 0.088040
vt 0.069371 0.097523
vt 0.540965 0.097523
vt 0.540966 0.088040
vt 0.624607 0.088040
vt 0.624605 0.097523
vt 0.630027 0.088056
vt 0.630038 0.097540
vt 0.907545 0.088040
vt 0.907543 0.097523
vt 0.915949 0.088040
vt 0.915957 0.097523
vt 0.543527 0.022284
vt 0.485184 0.022284
vt 0.485184 0.972279
vt 0.426840 0.022284
vt 0.636462 0.808931
vt 0.333906 0.808931
vt 0.327681 0.933273
vt 0.642687 0.933273
vt 0.960175 0.585403
vt 0.950837 0.548148
vt 0.010193 0.585403
vt 0.019531 0.548148
vt 0.759509 0.582279
vt 0.759509 0.375220
vt 0.956986 0.582279
vt 0.956986 0.375220
vt 0.496652 0.478814
vt 0.496652 0.271430
vt 0.697848 0.478814
vt 0.697848 0.271430
vt 0.783952 0.691987
vt 0.783952 0.451106
vt 0.769554 0.691987
vt 0.769554 0.451106
vt 0.312545 0.575910
vt 0.312545 0.565304
vt 0.489403 0.575910
vt 0.489403 0.565304
# 89 texture coordinates

vn 0.000000 1.000000 0.000000
vn 0.965926 0.000000 0.258818
vn 0.866026 0.000000 0.500000
vn 0.500000 0.000000 0.866025
vn 0.000000 0.000000 1.000000
vn -0.500000 0.000000 0.866025
vn -0.866026 0.000000 0.500000
vn -1.000000 0.000000 0.000000
vn -0.866026 0.000000 -0.500000
vn -0.500000 0.000000 -0.866025
vn 0.000000 0.000000 -1.000000
vn 0.500000 0.000000 -0.866025
vn 0.866026 0.000000 -0.500000
vn 0.965926 0.000000 -0.258819
vn 0.000000 -1.000000 0.000000
vn -0.997206 -0.074694 0.000329
vn -0.388127 0.921606 0.000856
vn -0.388086 0.921622 -0.001053
vn -0.388165 0.921586 0.002766
vn -0.970019 -0.243029 -0.000316
vn 0.582767 -0.812638 -0.001354
vn -0.746714 0.665145 -0.000780
vn -0.746733 0.665115 0.003441
vn -0.746681 0.665163 -0.005001
vn 0.997206 -0.074694 0.000335
vn 0.388126 0.921606 0.000850
vn 0.388085 0.921619 0.002753
vn 0.388166 0.921589 -0.001053
vn -0.582767 -0.812638 -0.001358
vn 0.970019 -0.243029 -0.000316
vn 0.746714 0.665145 -0.000792
vn 0.746728 0.665110 -0.005001
vn 0.746686 0.665167 0.003418
vn 0.000329 -0.074694 0.997206
vn 0.000856 0.921606 0.388127
vn -0.001053 0.921622 0.388086
vn 0.002766 0.921586 0.388165
vn -0.000316 -0.243029 0.970019
vn -0.001354 -0.812638 -0.582767
vn -0.000780 0.665145 0.746714
vn 0.003441 0.665115 0.746733
vn -0.005001 0.665163 0.746681
vn 0.000335 -0.074694 -0.997206
vn 0.000850 0.921606 -0.388126
vn 0.002753 0.921619 -0.388085
vn -0.001053 0.921589 -0.388166
vn -0.001358 -0.812638 0.582767
vn -0.000316 -0.243029 -0.970019
vn -0.000792 0.665145 -0.746714
vn -0.005001 0.665110 -0.746728
vn 0.003418 0.665167 -0.746686
vn 1.000000 -0.000004 -0.000000
vn 0.707107 -0.000000 -0.707107
vn -0.500001 0.707107 -0.499998
vn -0.707107 -0.000000 0.707107
vn 0.500000 -0.707107 0.500000
vn 0.500001 0.707106 0.500001
vn -0.500001 -0.707106 -0.500001
vn -0.707107 -0.000000 -0.707107
vn -0.500001 0.707107 0.499998
vn 0.707107 -0.000000 0.707107
vn 0.500000 -0.707107 -0.500000
vn 0.500001 0.707106 -0.500001
vn -0.500001 -0.707106 0.500001
# 64 normals

g tyc
usemtl rez
s 1
f 1/1/1 2/2/1 3/3/1
f 4/4/2 5/5/2 6/6/3
f 5/5/2 7/7/3 6/6/3
f 3/3/1 2/2/1 8/8/1
f 6/6/3 7/7/3 9/9/4
f 6/6/3 9/9/4 10/10/4
f 8/8/1 2/2/1 11/11/1
f 10/10/4 9/9/4 12/12/5
f 9/9/4 13/13/5 12/12/5
f 11/11/1 2/2/1 14/14/1
f 12/12/5 13/13/5 15/15/6
f 12/12/5 15/15/6 16/16/6
f 14/14/1 2/2/1 17/17/1
f 16/16/6 15/15/6 18/18/7
f 15/15/6 19/19/7 18/18/7
f 17/17/1 2/2/1 20/20/1
f 18/18/7 19/19/7 21/21/8
f 18/18/7 21/21/8 22/22/8
f 20/20/1 2/2/1 23/23/1
f 22/22/8 21/21/8 24/24/9
f 21/21/8 25/25/9 24/24/9
f 23/23/1 2/2/1 26/26/1
f 24/24/9 25/25/9 27/27/10
f 24/24/9 27/27/10 28/28/10
f 26/26/1 2/2/1 29/29/1
f 28/28/10 27/27/10 30/30/11
f 27/27/10 31/31/11 30/30/11
f 29/29/1 2/2/1 32/32/1
f 30/30/11 31/31/11 33/33/12
f 30/30/11 33/33/12 34/34/12
f 32/32/1 2/2/1 35/35/1
f 34/34/12 33/33/12 36/36/13
f 33/33/12 37/37/13 36/36/13
f 35/35/1 2/2/1 1/1/1
f 36/36/13 37/37/13 38/38/14
f 36/36/13 38/38/14 39/39/14
s 9
f 40/11/15 41/14/15 42/32/15
f 43/8/15 40/11/15 42/32/15
f 44/3/15 43/8/15 42/32/15
f 41/14/15 45/17/15 42/32/15
f 45/17/15 46/29/15 42/32/15
f 45/17/15 47/26/15 46/29/15
f 45/17/15 48/23/15 47/26/15
f 45/17/15 49/20/15 48/23/15
f 44/3/15 42/32/15 50/35/15
f 51/1/15 44/3/15 50/35/15
# 46 triangles in group

g telo1
usemtl rez
s 5
f 52/40/16 53/41/16 54/42/16
f 52/40/16 54/42/16 55/43/16
f 56/44/17 57/45/18 58/46/17
f 56/44/17 58/46/17 59/47/19
s 1
f 60/48/20 61/49/20 62/50/20
f 60/48/20 62/50/20 63/51/20
s 4
f 63/51/21 62/50/21 53/41/21
f 63/51/21 53/41/21 52/40/21
f 59/47/22 58/46/23 64/48/22
f 59/47/22 64/48/22 65/49/24
s 5
f 66/52/25 67/53/25 68/54/25
f 66/52/25 68/54/25 69/55/25
s 6
f 70/56/26 71/57/27 57/45/26
f 70/56/26 57/45/26 56/44/28
s 4
f 69/55/29 68/54/29 72/58/29
f 69/55/29 72/58/29 73/59/29
s 1
f 73/59/30 72/58/30 74/60/30
f 73/59/30 74/60/30 75/61/30
s 4
f 76/60/31 77/61/32 71/57/31
f 76/60/31 71/57/31 70/56/33
s 3
f 78/62/11 79/63/11 80/64/11
f 80/64/11 79/63/11 81/65/11
f 80/64/11 82/66/11 78/62/11
f 81/65/11 83/67/11 80/64/11
f 83/67/11 84/68/11 80/64/11
f 80/64/11 85/69/11 82/66/11
s 6
f 86/44/15 66/52/15 87/45/15
f 86/44/15 67/53/15 66/52/15
f 55/43/15 54/42/15 86/44/15
f 87/45/15 55/43/15 86/44/15
s 3
f 85/69/11 88/70/11 89/71/11
f 85/69/11 89/71/11 82/66/11
f 83/67/11 90/72/11 84/68/11
f 83/67/11 91/73/11 90/72/11
s 8
f 92/64/5 93/66/5 94/69/5
f 95/67/5 92/64/5 96/68/5
f 95/67/5 97/65/5 92/64/5
f 92/64/5 98/62/5 93/66/5
f 99/63/5 98/62/5 92/64/5
f 99/63/5 92/64/5 97/65/5
f 94/69/5 100/71/5 101/70/5
f 100/71/5 94/69/5 93/66/5
f 96/68/5 102/72/5 103/73/5
f 95/67/5 96/68/5 103/73/5
# 44 triangles in group

g telo2
usemtl rez
s 5
f 104/40/34 105/41/34 106/42/34
f 104/40/34 106/42/34 107/43/34
f 108/44/35 109/45/36 110/46/35
f 108/44/35 110/46/35 111/47/37
s 1
f 112/48/38 113/49/38 114/50/38
f 112/48/38 114/50/38 115/51/38
s 4
f 115/51/39 114/50/39 105/41/39
f 115/51/39 105/41/39 104/40/39
f 111/47/40 110/46/41 116/48/40
f 111/47/40 116/48/40 117/49/42
s 5
f 118/52/43 119/53/43 120/54/43
f 118/52/43 120/54/43 121/55/43
s 6
f 122/56/44 123/57/45 109/45/44
f 122/56/44 109/45/44 108/44/46
s 4
f 121/55/47 120/54/47 124/58/47
f 121/55/47 124/58/47 125/59/47
s 1
f 125/59/48 124/58/48 126/60/48
f 125/59/48 126/60/48 127/61/48
s 4
f 128/60/49 129/61/50 123/57/49
f 128/60/49 123/57/49 122/56/51
s 3
f 130/62/8 131/63/8 132/64/8
f 132/64/8 131/63/8 133/65/8
f 132/64/8 134/66/8 130/62/8
f 133/65/8 135/67/8 132/64/8
f 135/67/8 136/68/8 132/64/8
f 132/64/8 137/69/8 134/66/8
s 6
f 138/44/15 118/52/15 139/45/15
f 138/44/15 119/53/15 118/52/15
f 107/43/15 106/42/15 138/44/15
f 139/45/15 107/43/15 138/44/15
s 3
f 137/69/8 140/70/8 141/71/8
f 137/69/8 141/71/8 134/66/8
f 135/67/8 142/72/8 136/68/8
f 135/67/8 143/73/8 142/72/8
s 8
f 144/64/52 145/66/52 146/69/52
f 147/67/52 144/64/52 148/68/52
f 147/67/52 149/65/52 144/64/52
f 144/64/52 150/62/52 145/66/52
f 151/63/52 150/62/52 144/64/52
f 151/63/52 144/64/52 149/65/52
f 146/69/52 152/71/52 153/70/52
f 152/71/52 146/69/52 145/66/52
f 148/68/52 154/72/52 155/73/52
f 147/67/52 148/68/52 155/73/52
# 44 triangles in group

g hlava1
usemtl rez
s 1
f 156/74/5 157/75/5 158/76/5
f 157/75/5 159/77/5 158/76/5
s 2
f 160/74/52 161/75/52 162/76/52
f 161/75/52 163/77/52 162/76/52
s 1
f 164/74/11 165/75/11 166/76/11
f 165/75/11 167/77/11 166/76/11
s 2
f 168/74/8 169/75/8 170/76/8
f 169/75/8 171/77/8 170/76/8
s 3
f 168/74/1 172/75/1 162/76/1
f 172/75/1 173/77/1 162/76/1
f 174/74/15 169/75/15 175/76/15
f 169/75/15 163/77/15 175/76/15
# 12 triangles in group

g hlava2
usemtl rez
s 1
f 176/78/53 177/79/53 178/80/53
f 177/79/53 179/81/53 178/80/53
s 2
f 178/82/54 179/83/54 180/84/54
f 179/83/54 181/85/54 180/84/54
s 1
f 180/78/55 181/79/55 182/80/55
f 181/79/55 183/81/55 182/80/55
s 2
f 182/84/56 183/85/56 176/82/56
f 183/85/56 177/83/56 176/82/56
s 3
f 182/86/57 176/87/57 180/88/57
f 176/87/57 178/89/57 180/88/57
f 177/87/58 183/86/58 179/89/58
f 183/86/58 181/88/58 179/89/58
# 12 triangles in group

g hlava3
usemtl rez
s 1
f 184/78/59 185/79/59 186/80/59
f 185/79/59 187/81/59 186/80/59
s 2
f 186/82/60 187/83/60 188/84/60
f 187/83/60 189/85/60 188/84/60
s 1
f 188/78/61 189/79/61 190/80/61
f 189/79/61 191/81/61 190/80/61
s 2
f 190/84/62 191/85/62 184/82/62
f 191/85/62 185/83/62 184/82/62
s 3
f 190/86/63 184/87/63 188/88/63
f 184/87/63 186/89/63 188/88/63
f 185/87/64 191/86/64 187/89/64
f 191/86/64 189/88/64 187/89/64
# 12 triangles in group

# 170 triangles total

