# Wavefront OBJ exported by MilkShape 3D

mtllib designator3.mtl

v 0.020670 2.714441 0.000000
v 0.000000 2.714441 0.000000
v 0.017900 2.714441 0.010335
v 0.020670 -0.000175 0.000000
v 0.017900 -0.000175 0.010335
v 0.017900 2.714441 0.010335
v 0.010335 2.714441 0.017900
v 0.010335 2.714441 0.017900
v 0.010335 -0.000175 0.017900
v 0.000000 2.714441 0.020670
v 0.000000 -0.000175 0.020670
v 0.000000 2.714441 0.020670
v -0.010335 2.714441 0.017900
v -0.010335 2.714441 0.017900
v -0.010335 -0.000175 0.017900
v -0.017900 2.714441 0.010335
v -0.017900 -0.000175 0.010335
v -0.017900 2.714441 0.010335
v -0.020670 2.714441 0.000000
v -0.020670 2.714441 0.000000
v -0.020670 -0.000175 0.000000
v -0.017900 2.714441 -0.010335
v -0.017900 -0.000175 -0.010335
v -0.017900 2.714441 -0.010335
v -0.010335 2.714441 -0.017900
v -0.010335 2.714441 -0.017900
v -0.010335 -0.000175 -0.017900
v 0.000000 2.714441 -0.020670
v 0.000000 -0.000175 -0.020670
v 0.000000 2.714441 -0.020670
v 0.010335 2.714441 -0.017900
v 0.010335 2.714441 -0.017900
v 0.010335 -0.000175 -0.017900
v 0.017900 2.714441 -0.010335
v 0.017900 -0.000175 -0.010335
v 0.017900 2.714441 -0.010335
v 0.020670 2.714441 0.000000
v 0.020670 -0.000175 0.000000
v -0.191976 2.409276 0.005200
v -0.191979 2.409286 0.000000
v -0.052389 0.545709 0.000000
v -0.052388 0.545705 0.005200
v 0.000000 2.709502 0.005217
v 0.000000 2.709496 0.000000
v -0.210983 2.620652 0.000000
v -0.210967 2.620644 0.005200
v -0.623432 2.157630 0.005200
v -0.623420 2.157604 0.000000
v -0.611165 2.108672 0.000000
v -0.611162 2.108669 0.005200
v 0.052388 0.545705 0.005200
v 0.052389 0.545709 0.000000
v 0.191979 2.409286 0.000000
v 0.191976 2.409276 0.005200
v 0.210967 2.620644 0.005200
v 0.210983 2.620652 0.000000
v 0.611165 2.108672 0.000000
v 0.611162 2.108669 0.005200
v 0.623420 2.157604 0.000000
v 0.623432 2.157630 0.005200
v 0.000000 0.545709 0.000000
v 0.000000 0.545705 0.005217
v -0.006256 2.812613 0.006256
v -0.006256 2.713257 0.006256
v 0.006256 2.812613 0.006256
v 0.006256 2.713257 0.006256
v 0.006256 2.812613 -0.006256
v 0.006256 2.713257 -0.006256
v -0.006256 2.812613 -0.006256
v -0.006256 2.713257 -0.006256
v 0.005200 2.409276 0.191976
v 0.000000 2.409286 0.191979
v 0.000000 0.545709 0.052389
v 0.005200 0.545705 0.052388
v 0.005217 2.709502 -0.000000
v 0.000000 2.709496 0.000000
v 0.000000 2.620652 0.210983
v 0.005200 2.620644 0.210967
v 0.005200 2.157630 0.623432
v 0.000000 2.157604 0.623420
v 0.000000 2.108672 0.611165
v 0.005200 2.108669 0.611162
v 0.005200 0.545705 -0.052388
v -0.000000 0.545709 -0.052389
v -0.000000 2.409286 -0.191979
v 0.005200 2.409276 -0.191976
v 0.005200 2.620644 -0.210967
v -0.000000 2.620652 -0.210983
v -0.000000 2.108672 -0.611165
v 0.005200 2.108669 -0.611162
v -0.000000 2.157604 -0.623420
v 0.005200 2.157630 -0.623432
v -0.000000 0.545709 -0.000000
v 0.005217 0.545705 -0.000000
v -0.091402 2.872094 0.059959
v -0.015994 2.787230 0.006930
v 0.007196 2.935103 0.099332
v 0.082604 2.850238 0.046302
v 0.007196 3.001502 -0.006930
v 0.082604 2.916638 -0.059959
v -0.091402 2.938493 -0.046302
v -0.015994 2.853629 -0.099331
# 102 vertices

vt 0.734902 0.959257
vt 0.734902 0.050599
vt 0.755466 0.050599
vt 0.755466 0.959257
vt 0.776030 0.959257
vt 0.776030 0.050599
vt 0.796595 0.050599
vt 0.796595 0.959257
vt 0.817159 0.959257
vt 0.817159 0.050599
vt 0.837724 0.050599
vt 0.837724 0.959257
vt 0.858288 0.959257
vt 0.858288 0.050599
vt 0.878852 0.050599
vt 0.878852 0.959257
vt 0.899417 0.959257
vt 0.899417 0.050599
vt 0.919981 0.050599
vt 0.919981 0.959257
vt 0.940546 0.959257
vt 0.940546 0.050599
vt 0.961110 0.050599
vt 0.961110 0.959257
vt 0.981675 0.959257
vt 0.981675 0.050599
vt 0.352309 0.097523
vt 0.352307 0.088040
vt 0.435948 0.088040
vt 0.435949 0.097523
vt 0.488502 0.088040
vt 0.488502 0.097540
vt 0.346967 0.097540
vt 0.346977 0.088056
vt 0.060957 0.097523
vt 0.060965 0.088040
vt 0.069369 0.088040
vt 0.069371 0.097523
vt 0.540965 0.097523
vt 0.540966 0.088040
vt 0.624607 0.088040
vt 0.624605 0.097523
vt 0.630027 0.088056
vt 0.630038 0.097540
vt 0.907545 0.088040
vt 0.907543 0.097523
vt 0.915949 0.088040
vt 0.915957 0.097523
vt 0.543527 0.022284
vt 0.485184 0.022284
vt 0.485184 0.972279
vt 0.426840 0.022284
vt 0.636462 0.808931
vt 0.333906 0.808931
vt 0.327681 0.933273
vt 0.642687 0.933273
vt 0.960175 0.585403
vt 0.950837 0.548148
vt 0.010193 0.585403
vt 0.019531 0.548148
vt 0.322998 0.475527
vt 0.322998 0.192014
vt 0.575062 0.475527
vt 0.575062 0.192014
vt 0.194648 0.440774
vt 0.194648 0.177891
vt 0.461781 0.440774
vt 0.461781 0.177891
# 68 texture coordinates

vn 0.683013 0.707107 0.183013
vn 0.000000 1.000000 0.000000
vn 0.965926 0.000000 0.258819
vn 0.866025 0.000000 0.500000
vn 0.500000 0.000000 0.866025
vn 0.000000 0.000000 1.000000
vn -0.500000 0.000000 0.866025
vn -0.866025 0.000000 0.500000
vn -1.000000 0.000000 0.000000
vn -0.866025 0.000000 -0.500000
vn -0.500000 0.000000 -0.866025
vn 0.000000 0.000000 -1.000000
vn 0.500000 0.000000 -0.866025
vn 0.866025 0.000000 -0.500000
vn 0.965926 0.000000 -0.258819
vn -0.997206 -0.074694 0.000329
vn -0.388127 0.921606 0.000856
vn -0.388086 0.921622 -0.001053
vn -0.388165 0.921586 0.002766
vn -0.970019 -0.243029 -0.000316
vn 0.582767 -0.812638 -0.001354
vn -0.746714 0.665145 -0.000780
vn -0.746733 0.665115 0.003441
vn -0.746681 0.665163 -0.005001
vn 0.997206 -0.074694 0.000335
vn 0.388126 0.921606 0.000850
vn 0.388085 0.921619 0.002753
vn 0.388166 0.921589 -0.001053
vn -0.582767 -0.812638 -0.001358
vn 0.970019 -0.243029 -0.000316
vn 0.746714 0.665145 -0.000792
vn 0.746728 0.665110 -0.005001
vn 0.746686 0.665167 0.003418
vn 0.000000 -1.000000 -0.000835
vn 1.000000 0.000000 0.000000
vn 0.000329 -0.074694 0.997206
vn 0.000856 0.921606 0.388127
vn -0.001053 0.921622 0.388086
vn 0.002766 0.921586 0.388165
vn -0.000316 -0.243029 0.970019
vn -0.001354 -0.812638 -0.582767
vn -0.000780 0.665145 0.746714
vn 0.003441 0.665115 0.746733
vn -0.005001 0.665163 0.746681
vn 0.000335 -0.074694 -0.997206
vn 0.000850 0.921606 -0.388126
vn 0.002753 0.921619 -0.388085
vn -0.001053 0.921589 -0.388166
vn -0.001358 -0.812638 0.582767
vn -0.000316 -0.243029 -0.970019
vn -0.000792 0.665145 -0.746714
vn -0.005001 0.665110 -0.746728
vn 0.003418 0.665167 -0.746686
vn -0.000001 -0.529920 0.848048
vn 0.798637 0.510367 0.318912
vn 0.000001 0.529920 -0.848048
vn -0.798637 -0.510367 -0.318912
vn -0.601813 0.677283 0.423212
vn 0.601813 -0.677283 -0.423212
# 59 normals

g tyc
usemtl rez
s 1
f 1/1/1 2/1/2 3/1/2
f 4/2/3 1/1/1 5/3/4
f 1/1/1 6/4/4 5/3/4
f 3/1/2 2/1/2 7/1/2
f 5/3/4 6/4/4 8/5/5
f 5/3/4 8/5/5 9/6/5
f 7/1/2 2/1/2 10/1/2
f 9/6/5 8/5/5 11/7/6
f 8/5/5 12/8/6 11/7/6
f 10/1/2 2/1/2 13/1/2
f 11/7/6 12/8/6 14/9/7
f 11/7/6 14/9/7 15/10/7
f 13/1/2 2/1/2 16/1/2
f 15/10/7 14/9/7 17/11/8
f 14/9/7 18/12/8 17/11/8
f 16/1/2 2/1/2 19/1/2
f 17/11/8 18/12/8 20/13/9
f 17/11/8 20/13/9 21/14/9
f 19/1/2 2/1/2 22/1/2
f 21/14/9 20/13/9 23/15/10
f 20/13/9 24/16/10 23/15/10
f 22/1/2 2/1/2 25/1/2
f 23/15/10 24/16/10 26/17/11
f 23/15/10 26/17/11 27/18/11
f 25/1/2 2/1/2 28/1/2
f 27/18/11 26/17/11 29/19/12
f 26/17/11 30/20/12 29/19/12
f 28/1/2 2/1/2 31/1/2
f 29/19/12 30/20/12 32/21/13
f 29/19/12 32/21/13 33/22/13
f 31/1/2 2/1/2 34/1/2
f 33/22/13 32/21/13 35/23/14
f 32/21/13 36/24/14 35/23/14
f 34/1/2 2/1/2 1/1/1
f 35/23/14 36/24/14 37/25/15
f 35/23/14 37/25/15 38/26/15
# 36 triangles in group

g telo1
usemtl rez
s 5
f 39/27/16 40/28/16 41/29/16
f 39/27/16 41/29/16 42/30/16
f 43/31/17 44/32/18 45/33/17
f 43/31/17 45/33/17 46/34/19
s 1
f 47/35/20 48/36/20 49/37/20
f 47/35/20 49/37/20 50/38/20
s 4
f 50/38/21 49/37/21 40/28/21
f 50/38/21 40/28/21 39/27/21
f 46/34/22 45/33/23 48/35/22
f 46/34/22 48/35/22 47/36/24
s 5
f 51/39/25 52/40/25 53/41/25
f 51/39/25 53/41/25 54/42/25
s 6
f 55/43/26 56/44/27 44/32/26
f 55/43/26 44/32/26 43/31/28
s 4
f 54/42/29 53/41/29 57/45/29
f 54/42/29 57/45/29 58/46/29
s 1
f 58/46/30 57/45/30 59/47/30
f 58/46/30 59/47/30 60/48/30
s 4
f 60/47/31 59/48/32 56/44/31
f 60/47/31 56/44/31 55/43/33
s 3
f 52/49/12 61/50/12 44/51/12
f 44/51/12 61/50/12 41/52/12
f 44/51/12 53/53/12 52/49/12
f 41/52/12 40/54/12 44/51/12
f 40/54/12 45/55/12 44/51/12
f 44/51/12 56/56/12 53/53/12
s 6
f 61/31/34 51/39/34 62/32/34
f 61/31/34 52/40/34 51/39/34
f 42/30/34 41/29/34 61/31/34
f 62/32/34 42/30/34 61/31/34
s 3
f 56/56/12 59/57/12 57/58/12
f 56/56/12 57/58/12 53/53/12
f 40/54/12 48/59/12 45/55/12
f 40/54/12 49/60/12 48/59/12
s 8
f 43/51/6 54/53/6 55/56/6
f 39/54/6 43/51/6 46/55/6
f 39/54/6 42/52/6 43/51/6
f 43/51/6 51/49/6 54/53/6
f 62/50/6 51/49/6 43/51/6
f 62/50/6 43/51/6 42/52/6
f 55/56/6 58/58/6 60/57/6
f 58/58/6 55/56/6 54/53/6
f 46/55/6 47/59/6 50/60/6
f 39/54/6 46/55/6 50/60/6
# 44 triangles in group

g telo2
usemtl rez
s 5
f 71/27/36 72/28/36 73/29/36
f 71/27/36 73/29/36 74/30/36
f 75/31/37 76/32/38 77/33/37
f 75/31/37 77/33/37 78/34/39
s 1
f 79/35/40 80/36/40 81/37/40
f 79/35/40 81/37/40 82/38/40
s 4
f 82/38/41 81/37/41 72/28/41
f 82/38/41 72/28/41 71/27/41
f 78/34/42 77/33/43 80/35/42
f 78/34/42 80/35/42 79/36/44
s 5
f 83/39/45 84/40/45 85/41/45
f 83/39/45 85/41/45 86/42/45
s 6
f 87/43/46 88/44/47 76/32/46
f 87/43/46 76/32/46 75/31/48
s 4
f 86/42/49 85/41/49 89/45/49
f 86/42/49 89/45/49 90/46/49
s 1
f 90/46/50 89/45/50 91/47/50
f 90/46/50 91/47/50 92/48/50
s 4
f 92/47/51 91/48/52 88/44/51
f 92/47/51 88/44/51 87/43/53
s 3
f 84/49/9 93/50/9 76/51/9
f 76/51/9 93/50/9 73/52/9
f 76/51/9 85/53/9 84/49/9
f 73/52/9 72/54/9 76/51/9
f 72/54/9 77/55/9 76/51/9
f 76/51/9 88/56/9 85/53/9
s 6
f 93/31/34 83/39/34 94/32/34
f 93/31/34 84/40/34 83/39/34
f 74/30/34 73/29/34 93/31/34
f 94/32/34 74/30/34 93/31/34
s 3
f 88/56/9 91/57/9 89/58/9
f 88/56/9 89/58/9 85/53/9
f 72/54/9 80/59/9 77/55/9
f 72/54/9 81/60/9 80/59/9
s 8
f 75/51/35 86/53/35 87/56/35
f 71/54/35 75/51/35 78/55/35
f 71/54/35 74/52/35 75/51/35
f 75/51/35 83/49/35 86/53/35
f 94/50/35 83/49/35 75/51/35
f 94/50/35 75/51/35 74/52/35
f 87/56/35 90/58/35 92/57/35
f 90/58/35 87/56/35 86/53/35
f 78/55/35 79/59/35 82/60/35
f 71/54/35 78/55/35 82/60/35
# 44 triangles in group

g hlava1
usemtl rez
s 1
f 63/61/6 64/62/6 65/63/6
f 64/62/6 66/64/6 65/63/6
s 2
f 65/61/35 66/62/35 67/63/35
f 66/62/35 68/64/35 67/63/35
s 1
f 67/61/12 68/62/12 69/63/12
f 68/62/12 70/64/12 69/63/12
s 2
f 69/61/9 70/62/9 63/63/9
f 70/62/9 64/64/9 63/63/9
s 3
f 69/61/2 63/62/2 67/63/2
f 63/62/2 65/64/2 67/63/2
f 64/61/34 70/62/34 66/63/34
f 70/62/34 68/64/34 66/63/34
# 12 triangles in group

g hlava2
usemtl rez
s 1
f 95/65/54 96/66/54 97/67/54
f 96/66/54 98/68/54 97/67/54
s 2
f 97/65/55 98/66/55 99/67/55
f 98/66/55 100/68/55 99/67/55
s 1
f 99/65/56 100/66/56 101/67/56
f 100/66/56 102/68/56 101/67/56
s 2
f 101/65/57 102/66/57 95/67/57
f 102/66/57 96/68/57 95/67/57
s 3
f 101/65/58 95/66/58 99/67/58
f 95/66/58 97/68/58 99/67/58
f 96/65/59 102/66/59 98/67/59
f 102/66/59 100/68/59 98/67/59
# 12 triangles in group

# 148 triangles total

